{"title":"The Bates Haunting 2012 WEBRip 480p x264 AAC - VYTO [P2PDL]","uid":8792528,"size":319436992,"categoryP":"video","categoryS":"movies","magnet":"?xt=urn:btih:c7234e60df48a61eaa2d1766d809a901fe08c779&amp;dn=The+Bates+Haunting+2012+WEBRip+480p+x264+AAC+-+VYTO+%5BP2PDL%5D&amp;tr=udp%3A%2F%2Ftracker.openbittorrent.com%3A80&amp;tr=udp%3A%2F%2Fopen.demonii.com%3A1337&amp;tr=udp%3A%2F%2Ftracker.coppersurfer.tk%3A6969&amp;tr=udp%3A%2F%2Fexodus.desync.com%3A6969","seeders":0,"leechers":1,"uploader":"Vitamin_X","files":-1,"time":1375985951,"description":"_______ Visit us at our Semi Public Bittorrent Community ________\n  &lt;a href=&quot;\nhttp://p2pdl.com&quot; rel=&quot;nofollow&quot; target=&quot;_NEW&quot;&gt;\nhttp://p2pdl.com&lt;/a&gt;  _____________________________ &lt;a href=&quot; http://p2pdl.com&quot; rel=&quot;nofollow&quot; target=&quot;_NEW&quot;&gt; http://p2pdl.com&lt;/a&gt;\n\n\nThe Bates Haunting 2012 WEBRip 480p x264 AAC - VYTO\n\n\nGenre: Thriller\nPlot: One year ago, Agnes Rickover attended opening night \nat the Bates Motel and Haunted Hayride to see her best friend \nLily's dramatic debut. A horrific accident resulted in Agnes \nwitnessing Lily's fiery death in a spectacle gone wrong. \nAfter a year of obsessing over a murder investigation everyone \nelse thinks is open and shut, Agnes goes to work at the Haunt \nin an attempt confront her trauma. Horrific events begin to \nclaim the lives of her coworkers and Agnes must figure out \nwhat is behind all of the &quot;accidents&quot; before more people die. \nDirector: Byron Turk\nStars: Jean Louise O'Sullivan, Zachary Fletcher, Ryan Dunn\nRated: N/A\n\nInfo: &lt;a href=&quot;\nhttp://www.imdb.com/title/tt1833887/&quot; rel=&quot;nofollow&quot; target=&quot;_NEW&quot;&gt;\nhttp://www.imdb.com/title/tt1833887/&lt;/a&gt;\n\n\nGeneral\nFormat                         : MPEG-4\nFile size                      : 301 MiB\nDuration                       : 1h 17mn\nOverall bit rate mode          : Variable\nOverall bit rate               : 542 Kbps\n\nVideo\nFormat                         : AVC\nBit rate                       : 499 Kbps\nWidth                          : 720 pixels\nHeight                         : 400 pixels\nDisplay aspect ratio           : 16:9\nFrame rate mode                : Constant\nFrame rate                     : 23.976 fps\nBit depth                      : 10 bits\nStream size                    : 277 MiB (92%)\n\nAudio\nFormat                         : AAC\nBit rate                       : 40.0 Kbps\nChannel(s)                     : 2 channels\nChannel positions              : Front: L R\nSampling rate                  : 48.0 KHz / 24.0 KHz\nStream size                    : 22.2 MiB (7%)\nLanguage                       : English\n\nSubtitle                       : Yes (English)\n &lt;a href=&quot;\nhttp://ultraimg.com/images/ysfvB.jpg&quot; rel=&quot;nofollow&quot; target=&quot;_NEW&quot;&gt;\nhttp://ultraimg.com/images/ysfvB.jpg&lt;/a&gt; &lt;a href=&quot;\nhttp://ultraimg.com/images/xe0RZ.jpg&quot; rel=&quot;nofollow&quot; target=&quot;_NEW&quot;&gt;\nhttp://ultraimg.com/images/xe0RZ.jpg&lt;/a&gt; &lt;a href=&quot;\nhttp://ultraimg.com/images/Y30Kq.jpg&quot; rel=&quot;nofollow&quot; target=&quot;_NEW&quot;&gt;\nhttp://ultraimg.com/images/Y30Kq.jpg&lt;/a&gt; &lt;a href=&quot;\nhttp://ultraimg.com/images/Ac5zr.jpg&quot; rel=&quot;nofollow&quot; target=&quot;_NEW&quot;&gt;\nhttp://ultraimg.com/images/Ac5zr.jpg&lt;/a&gt; &lt;a href=&quot;\nhttp://ultraimg.com/images/zunPo.jpg&quot; rel=&quot;nofollow&quot; target=&quot;_NEW&quot;&gt;\nhttp://ultraimg.com/images/zunPo.jpg&lt;/a&gt; &lt;a href=&quot;\nhttp://ultraimg.com/images/l4TjB.jpg&quot; rel=&quot;nofollow&quot; target=&quot;_NEW&quot;&gt;\nhttp://ultraimg.com/images/l4TjB.jpg&lt;/a&gt; &lt;a href=&quot;\nhttp://ultraimg.com/images/I602.jpg&quot; rel=&quot;nofollow&quot; target=&quot;_NEW&quot;&gt;\nhttp://ultraimg.com/images/I602.jpg&lt;/a&gt;\n\n\n----------------------------------------------------------------------------------------------------\n\n\nEncoded using revolutionary 10bit encoding, which enables us to provide you more crispier \nand sharper images at small sizes, just make sure you follow our instructions without a fault.\nRecommend to you to use latest version of VLC player. Install K-Lite Codec Pack or shark007 codecs\nin case of any kind of problem in playback (For non-VLC Media Player users). Alternatively, install\nCore AVC codecs, the fastest decoder that there is coupled with Community Center Codec Pack and play\non Windows Media Player Classic. Check sample to be sure.\nEnjoy!\n\nEncoder Notes:Looking For Early Access To Anything You Can Provide DVDScr, R5, DVDR, BluRay, Direct\nAudio, Music Releases and Seedboxes. We require dedicated servers, so as to do more \nand fast releases of movies.\nIf You Got anything to offer please contact us at &quot;&lt;a class=&quot;__cf_email__&quot; href=&quot;/cdn-cgi/l/email-protection&quot; data-cfemail=&quot;73030114331b06001b5d101c1e&quot;&gt;[email&amp;#160;protected]&lt;/a&gt;&lt;script cf-hash='f9e31' type=&quot;text/javascript&quot;&gt;\n/* &lt;![CDATA[ */!function(){try{var t=&quot;currentScript&quot;in document?document.currentScript:function(){for(var t=document.getElementsByTagName(&quot;script&quot;),e=t.length;e--;)if(t[e].getAttribute(&quot;cf-hash&quot;))return t[e]}();if(t&amp;&amp;t.previousSibling){var e,r,n,i,c=t.previousSibling,a=c.getAttribute(&quot;data-cfemail&quot;);if(a){for(e=&quot;&quot;,r=parseInt(a.substr(0,2),16),n=2;a.length-n;n+=2)i=parseInt(a.substr(n,2),16)^r,e+=String.fromCharCode(i);e=document.createTextNode(e),c.parentNode.replaceChild(e,c)}}}catch(u){}}();/* ]]&gt; */&lt;/script&gt;&quot;.\n\nFace book Fan Page:  \nSearch P2PDL on FB.","torrent":{"xt":"urn:btih:c7234e60df48a61eaa2d1766d809a901fe08c779","amp;dn":"The+Bates+Haunting+2012+WEBRip+480p+x264+AAC+-+VYTO+%5BP2PDL%5D","amp;tr":["udp%3A%2F%2Ftracker.openbittorrent.com%3A80","udp%3A%2F%2Fopen.demonii.com%3A1337","udp%3A%2F%2Ftracker.coppersurfer.tk%3A6969","udp%3A%2F%2Fexodus.desync.com%3A6969"],"infoHash":"c7234e60df48a61eaa2d1766d809a901fe08c779","infoHashBuffer":{"type":"Buffer","data":[199,35,78,96,223,72,166,30,170,45,23,102,216,9,169,1,254,8,199,121]},"announce":[],"urlList":[]}}